<svg width="143" height="35" viewBox="0 0 143 35" fill="none" xmlns="http://www.w3.org/2000/svg">
<path fill-rule="evenodd" clip-rule="evenodd" d="M20.2025 30.9137C17.8705 29.2962 15.9345 30.7165 14.1616 32.3226C16.4503 32.9489 18.8742 33.2331 20.2025 30.9137Z" fill="#ffffff"/>
<path fill-rule="evenodd" clip-rule="evenodd" d="M20.1389 30.9204L14.2476 32.3158C16.7135 32.9301 18.8786 33.1207 20.1389 30.9204Z" fill="#ffffff"/>
<path fill-rule="evenodd" clip-rule="evenodd" d="M19.6403 29.521C19.5368 26.6708 17.25 25.9539 14.9126 25.4797C15.7797 27.7033 17.0001 29.8318 19.6403 29.521V29.521Z" fill="#ffffff"/>
<path fill-rule="evenodd" clip-rule="evenodd" d="M19.5979 29.4743L14.9702 25.5459C15.9528 27.9055 17.0931 29.7691 19.5979 29.4743Z" fill="#ffffff"/>
<path fill-rule="evenodd" clip-rule="evenodd" d="M16.0437 29.6283C13.8558 27.8181 11.8076 29.0685 9.90625 30.5179C12.1342 31.3368 14.5255 31.8263 16.0437 29.6283Z" fill="#ffffff"/>
<path fill-rule="evenodd" clip-rule="evenodd" d="M15.98 29.629L9.99268 30.5179C12.3983 31.3399 14.5395 31.7142 15.98 29.629Z" fill="#ffffff"/>
<path fill-rule="evenodd" clip-rule="evenodd" d="M14.0142 28.2763C15.3776 25.7768 13.7802 23.9793 12.0156 22.3639C11.6269 24.7205 11.5898 27.1781 14.0142 28.2763Z" fill="#ffffff"/>
<path fill-rule="evenodd" clip-rule="evenodd" d="M14.0015 28.2144L12.0312 22.4506C11.6723 24.9836 11.7015 27.1724 14.0015 28.2144Z" fill="#ffffff"/>
<path fill-rule="evenodd" clip-rule="evenodd" d="M12.2444 28.2219C10.6347 25.8757 8.32418 26.5109 6.10059 27.3782C8.0193 28.7823 10.185 29.915 12.2444 28.2219Z" fill="#ffffff"/>
<path fill-rule="evenodd" clip-rule="evenodd" d="M12.1838 28.2062L6.18457 27.4033C8.27323 28.8596 10.2299 29.8123 12.1838 28.2062Z" fill="#ffffff"/>
<path fill-rule="evenodd" clip-rule="evenodd" d="M9.97185 26.1288C12.0547 24.197 11.109 21.9805 9.94727 19.8831C8.83352 21.9922 8.02105 24.3099 9.97185 26.1288Z" fill="#ffffff"/>
<path fill-rule="evenodd" clip-rule="evenodd" d="M9.97972 26.0657L9.93506 19.9698C8.79367 22.2557 8.12908 24.3399 9.97972 26.0657Z" fill="#ffffff"/>
<path fill-rule="evenodd" clip-rule="evenodd" d="M8.86257 25.8916C7.72528 23.2799 5.337 23.4608 2.99023 23.8862C4.60878 25.6323 6.52105 27.1592 8.86257 25.8916Z" fill="#ffffff"/>
<path fill-rule="evenodd" clip-rule="evenodd" d="M8.80553 25.8626L3.06738 23.925C4.84294 25.7549 6.58401 27.0651 8.80553 25.8626Z" fill="#ffffff"/>
<path fill-rule="evenodd" clip-rule="evenodd" d="M6.96685 23.3662C9.36929 21.857 8.84815 19.5024 8.09277 17.2242C6.60997 19.0887 5.38482 21.2144 6.96685 23.3662Z" fill="#ffffff"/>
<path fill-rule="evenodd" clip-rule="evenodd" d="M6.98586 23.3048L8.06445 17.3064C6.52194 19.3394 5.48509 21.2632 6.98586 23.3048Z" fill="#ffffff"/>
<path fill-rule="evenodd" clip-rule="evenodd" d="M6.12781 23.0134C5.5014 20.2323 3.12217 19.955 0.737793 19.9258C1.99933 21.9486 3.59046 23.8121 6.12781 23.0134Z" fill="#ffffff"/>
<path fill-rule="evenodd" clip-rule="evenodd" d="M6.07762 22.9739L0.806641 19.9784C2.20663 22.1134 3.67034 23.7315 6.07762 22.9739Z" fill="#ffffff"/>
<path fill-rule="evenodd" clip-rule="evenodd" d="M5.41273 18.9267C7.97096 17.7045 7.72092 15.3052 7.22949 12.955C5.54447 14.6362 4.08571 16.6067 5.41273 18.9267V18.9267Z" fill="#ffffff"/>
<path fill-rule="evenodd" clip-rule="evenodd" d="M5.43895 18.8695L7.19238 13.0348C5.42888 14.8766 4.18013 16.6683 5.43895 18.8695Z" fill="#ffffff"/>
<path fill-rule="evenodd" clip-rule="evenodd" d="M4.98772 19.722C4.69358 16.8856 2.36396 16.3257 0 16.0115C1.01412 18.171 2.37428 20.2116 4.98772 19.722Z" fill="#ffffff"/>
<path fill-rule="evenodd" clip-rule="evenodd" d="M4.94289 19.6778L0.0625 16.073C1.20087 18.3604 2.46344 20.1421 4.94289 19.6778Z" fill="#ffffff"/>
<path fill-rule="evenodd" clip-rule="evenodd" d="M4.33831 14.2771C7.1028 13.6616 7.39127 11.2667 7.43359 8.86523C5.41838 10.1246 3.55953 11.7169 4.33831 14.2771V14.2771Z" fill="#ffffff"/>
<path fill-rule="evenodd" clip-rule="evenodd" d="M4.37723 14.2262L7.38037 8.93372C5.25305 10.332 3.63854 11.7973 4.37723 14.2262Z" fill="#ffffff"/>
<path fill-rule="evenodd" clip-rule="evenodd" d="M3.79702 16.3693C4.59706 13.6337 2.65452 12.2227 0.587402 11.0256C0.708978 13.4113 1.19543 15.8199 3.79702 16.3693Z" fill="#ffffff"/>
<path fill-rule="evenodd" clip-rule="evenodd" d="M3.77192 16.3103L0.621582 11.1055C0.8097 13.6571 1.30377 15.7888 3.77192 16.3103Z" fill="#ffffff"/>
<path fill-rule="evenodd" clip-rule="evenodd" d="M5.42467 8.90321C8.25257 9.04586 9.15941 6.81296 9.83057 4.50818C7.55633 5.18611 5.34553 6.22672 5.42467 8.90321V8.90321Z" fill="#ffffff"/>
<path fill-rule="evenodd" clip-rule="evenodd" d="M5.47456 8.8651L9.76025 4.56067C7.34145 5.34264 5.39965 6.32585 5.47456 8.8651V8.8651Z" fill="#ffffff"/>
<path fill-rule="evenodd" clip-rule="evenodd" d="M3.60623 11.9723C5.30563 9.69119 3.97561 7.68492 2.45459 5.83521C1.74014 8.11314 1.3596 10.541 3.60623 11.9723Z" fill="#ffffff"/>
<path fill-rule="evenodd" clip-rule="evenodd" d="M3.60234 11.9079L2.45801 5.92188C1.74828 8.3787 1.47101 10.5499 3.60234 11.9079Z" fill="#ffffff"/>
<path fill-rule="evenodd" clip-rule="evenodd" d="M6.66271 4.84631C9.48944 4.68202 10.1528 2.36398 10.5742 0C8.38548 0.92015 6.2985 2.19399 6.66271 4.84631Z" fill="#ffffff"/>
<path fill-rule="evenodd" clip-rule="evenodd" d="M6.70956 4.80243L10.5112 0.0592041C8.18986 1.09843 6.3642 2.2861 6.70956 4.80243Z" fill="#ffffff"/>
<path fill-rule="evenodd" clip-rule="evenodd" d="M4.85878 7.30839C6.98259 5.42239 6.08471 3.18588 4.96826 1.0636C3.80951 3.14796 2.94749 5.44742 4.85878 7.30839Z" fill="#ffffff"/>
<path fill-rule="evenodd" clip-rule="evenodd" d="M4.8684 7.24567L4.95459 1.15027C3.76441 3.41076 3.05524 5.48002 4.8684 7.24567Z" fill="#ffffff"/>
<path d="M25.7768 4.3462H27.7939V14.0625H25.7768V4.3462ZM37.5498 14.0625H35.5195L31.5512 7.16089V14.0625H29.6594V4.3462H31.7886L35.6579 11.1292V4.3462H37.5498V14.0625ZM46.508 4.3462V6.06665H43.601V14.0625H41.5576V6.06665H38.6374V4.3462H46.508ZM54.4643 9.81738H49.7446V12.3157H55.1235V14.0625H47.7605V4.3462H54.8862V6.06665H49.7446V8.12989H54.4643V9.81738ZM60.832 10.2524H58.7358V14.0625H56.7517V4.3462H61.5175C62.1987 4.35938 62.7216 4.44288 63.0864 4.59668C63.4555 4.75049 63.7675 4.97681 64.0224 5.27564C64.2334 5.52173 64.4004 5.79419 64.5234 6.09302C64.6464 6.39185 64.708 6.73242 64.708 7.11475C64.708 7.57617 64.5915 8.03101 64.3586 8.47925C64.1257 8.9231 63.7412 9.23731 63.205 9.42188C63.6533 9.60205 63.9697 9.85913 64.1543 10.1931C64.3432 10.5227 64.4377 11.0281 64.4377 11.7092V12.3618C64.4377 12.8057 64.4553 13.1067 64.4904 13.2649C64.5432 13.5154 64.6662 13.7 64.8596 13.8186V14.0625H62.625C62.5634 13.8472 62.5195 13.6736 62.4931 13.5417C62.4404 13.2693 62.4118 12.9902 62.4074 12.7046L62.3943 11.8015C62.3855 11.1819 62.2712 10.7688 62.0515 10.5623C61.8361 10.3557 61.4297 10.2524 60.832 10.2524ZM62.0647 8.48584C62.469 8.30127 62.6711 7.93653 62.6711 7.3916C62.6711 6.80274 62.4756 6.40723 62.0844 6.20508C61.8647 6.09082 61.5351 6.03369 61.0957 6.03369H58.7358V8.64405H61.0363C61.4934 8.64405 61.8361 8.59131 62.0647 8.48584ZM72.1501 12.0652H68.5708L67.8984 14.0625H65.7758L69.2431 4.3462H71.5371L74.978 14.0625H72.7763L72.1501 12.0652ZM71.5832 10.3909L70.3703 6.56763L69.1179 10.3909H71.5832ZM83.0727 13.3374C82.3476 14.001 81.4204 14.3328 80.291 14.3328C78.8935 14.3328 77.7949 13.8845 76.9951 12.988C76.1953 12.0872 75.7954 10.8523 75.7954 9.28345C75.7954 7.58716 76.2502 6.27979 77.1599 5.36133C77.9509 4.56153 78.9572 4.16163 80.1789 4.16163C81.8137 4.16163 83.009 4.69776 83.7649 5.77002C84.1823 6.37207 84.4065 6.97632 84.4372 7.58277H82.4069C82.2751 7.11695 82.1059 6.76538 81.8994 6.52808C81.5302 6.1062 80.9831 5.89527 80.258 5.89527C79.5197 5.89527 78.9375 6.1941 78.5112 6.79175C78.0849 7.38501 77.8718 8.22656 77.8718 9.31641C77.8718 10.4063 78.0959 11.2236 78.5441 11.7686C78.9968 12.3091 79.5703 12.5793 80.2646 12.5793C80.9765 12.5793 81.5192 12.3464 81.8928 11.8806C82.0993 11.6301 82.2707 11.2544 82.4069 10.7534H84.4174C84.2417 11.8125 83.7934 12.6738 83.0727 13.3374ZM93.0329 4.3462V6.06665H90.1259V14.0625H88.0825V6.06665H85.1623V4.3462H93.0329ZM94.0678 4.3462H96.0849V14.0625H94.0678V4.3462ZM102.281 14.3328C100.893 14.3328 99.8313 13.9548 99.0974 13.199C98.113 12.2717 97.6208 10.9358 97.6208 9.19116C97.6208 7.41138 98.113 6.07544 99.0974 5.18335C99.8313 4.42749 100.893 4.04956 102.281 4.04956C103.67 4.04956 104.731 4.42749 105.465 5.18335C106.445 6.07544 106.935 7.41138 106.935 9.19116C106.935 10.9358 106.445 12.2717 105.465 13.199C104.731 13.9548 103.67 14.3328 102.281 14.3328ZM104.199 11.7224C104.67 11.1292 104.905 10.2854 104.905 9.19116C104.905 8.10132 104.667 7.25977 104.193 6.66651C103.723 6.06885 103.085 5.77002 102.281 5.77002C101.477 5.77002 100.835 6.06665 100.356 6.65992C99.8774 7.25318 99.6379 8.09693 99.6379 9.19116C99.6379 10.2854 99.8774 11.1292 100.356 11.7224C100.835 12.3157 101.477 12.6123 102.281 12.6123C103.085 12.6123 103.725 12.3157 104.199 11.7224ZM116.348 14.0625H114.318L110.35 7.16089V14.0625H108.458V4.3462H110.587L114.456 11.1292V4.3462H116.348V14.0625ZM48.1296 28.0652H44.5503L43.8779 30.0625H41.7553L45.2226 20.3462H47.5166L50.9575 30.0625H48.7558L48.1296 28.0652ZM47.5627 26.3909L46.3498 22.5676L45.0974 26.3909H47.5627ZM60.9111 20.3462H62.9743L60.2387 30.0625H58.3007L57.1274 24.3804L56.7846 22.5017L56.4419 24.3804L55.2685 30.0625H53.3833L50.6279 20.3462H52.7834L54.0688 25.9097L54.3457 27.4587L54.6291 25.9426L55.7234 20.3462H57.8657L59.0193 25.9097L59.3159 27.4587L59.6125 25.969L60.9111 20.3462ZM69.1574 28.0652H65.5781L64.9057 30.0625H62.7832L66.2505 20.3462H68.5444L71.9853 30.0625H69.7837L69.1574 28.0652ZM68.5905 26.3909L67.3776 22.5676L66.1252 26.3909H68.5905ZM77.351 26.2524H75.2548V30.0625H73.2707V20.3462H78.0366C78.7177 20.3594 79.2407 20.4429 79.6054 20.5967C79.9746 20.7505 80.2866 20.9768 80.5415 21.2756C80.7524 21.5217 80.9194 21.7942 81.0424 22.093C81.1655 22.3918 81.227 22.7324 81.227 23.1147C81.227 23.5762 81.1106 24.031 80.8776 24.4793C80.6447 24.9231 80.2602 25.2373 79.7241 25.4219C80.1723 25.6021 80.4887 25.8591 80.6733 26.1931C80.8623 26.5227 80.9567 27.0281 80.9567 27.7092V28.3618C80.9567 28.8057 80.9743 29.1067 81.0095 29.2649C81.0622 29.5154 81.1853 29.7 81.3786 29.8186V30.0625H79.144C79.0825 29.8472 79.0385 29.6736 79.0122 29.5417C78.9594 29.2693 78.9309 28.9902 78.9265 28.7046L78.9133 27.8015C78.9045 27.1819 78.7902 26.7688 78.5705 26.5623C78.3552 26.3557 77.9487 26.2524 77.351 26.2524ZM78.5837 24.4858C78.988 24.3013 79.1901 23.9365 79.1901 23.3916C79.1901 22.8027 78.9946 22.4072 78.6035 22.2051C78.3837 22.0908 78.0542 22.0337 77.6147 22.0337H75.2548V24.644H77.5554C78.0124 24.644 78.3552 24.5913 78.5837 24.4858ZM87.1662 30.0625H82.9804V20.3462H87.1662C87.7683 20.355 88.2692 20.4253 88.6691 20.5571C89.3503 20.7813 89.9018 21.1921 90.3237 21.7898C90.6621 22.2732 90.8928 22.7961 91.0158 23.3586C91.1389 23.9211 91.2004 24.4573 91.2004 24.967C91.2004 26.259 90.9411 27.3533 90.4226 28.2498C89.7194 29.4583 88.634 30.0625 87.1662 30.0625ZM88.6757 22.8247C88.3637 22.2974 87.7463 22.0337 86.8234 22.0337H84.9514V28.375H86.8234C87.7814 28.375 88.4494 27.9026 88.8273 26.9578C89.0339 26.4392 89.1372 25.8218 89.1372 25.1055C89.1372 24.1167 88.9834 23.3564 88.6757 22.8247ZM96.2629 28.6584C96.7419 28.6584 97.1308 28.6057 97.4296 28.5002C97.9965 28.2981 98.28 27.9224 98.28 27.373C98.28 27.0522 98.1394 26.804 97.8581 26.6282C97.5769 26.4568 97.1352 26.3052 96.5332 26.1733L95.5048 25.9426C94.4941 25.7141 93.7954 25.4658 93.4086 25.1978C92.7539 24.7495 92.4265 24.0486 92.4265 23.095C92.4265 22.2249 92.7429 21.502 93.3757 20.9263C94.0085 20.3506 94.9379 20.0627 96.164 20.0627C97.1879 20.0627 98.0603 20.3352 98.781 20.8801C99.5061 21.4207 99.8862 22.2073 99.9213 23.24H97.9702C97.935 22.6555 97.6801 22.2402 97.2055 21.9941C96.8891 21.8315 96.4958 21.7502 96.0256 21.7502C95.5026 21.7502 95.0852 21.8557 94.7731 22.0667C94.4611 22.2776 94.3051 22.572 94.3051 22.95C94.3051 23.2971 94.4589 23.5564 94.7666 23.7278C94.9643 23.842 95.3862 23.9761 96.0322 24.1299L97.7065 24.532C98.4404 24.7078 98.9941 24.9429 99.3676 25.2373C99.9477 25.6943 100.238 26.3557 100.238 27.2214C100.238 28.1091 99.8972 28.8474 99.216 29.4363C98.5393 30.0208 97.5813 30.313 96.342 30.313C95.0764 30.313 94.081 30.0251 93.3559 29.4495C92.6308 28.8694 92.2683 28.074 92.2683 27.0632H94.2063C94.2678 27.5071 94.3886 27.8389 94.5688 28.0586C94.8984 28.4585 95.4631 28.6584 96.2629 28.6584Z" fill="#ffffff"/>
<path fill-rule="evenodd" clip-rule="evenodd" d="M121.923 30.9137C124.254 29.2962 126.19 30.7165 127.963 32.3226C125.675 32.9489 123.251 33.2331 121.923 30.9137Z" fill="#ffffff"/>
<path fill-rule="evenodd" clip-rule="evenodd" d="M121.986 30.9204L127.877 32.3158C125.411 32.9301 123.246 33.1207 121.986 30.9204Z" fill="#ffffff"/>
<path fill-rule="evenodd" clip-rule="evenodd" d="M122.485 29.521C122.588 26.6708 124.875 25.9539 127.212 25.4797C126.345 27.7033 125.125 29.8318 122.485 29.521V29.521Z" fill="#ffffff"/>
<path fill-rule="evenodd" clip-rule="evenodd" d="M122.527 29.4743L127.155 25.5459C126.172 27.9055 125.032 29.7691 122.527 29.4743Z" fill="#ffffff"/>
<path fill-rule="evenodd" clip-rule="evenodd" d="M126.082 29.6283C128.27 27.8181 130.318 29.0685 132.219 30.5179C129.991 31.3368 127.6 31.8263 126.082 29.6283Z" fill="#ffffff"/>
<path fill-rule="evenodd" clip-rule="evenodd" d="M126.146 29.629L132.133 30.5179C129.727 31.3399 127.586 31.7142 126.146 29.629Z" fill="#ffffff"/>
<path fill-rule="evenodd" clip-rule="evenodd" d="M128.111 28.2763C126.747 25.7768 128.345 23.9793 130.109 22.3639C130.498 24.7205 130.535 27.1781 128.111 28.2763Z" fill="#ffffff"/>
<path fill-rule="evenodd" clip-rule="evenodd" d="M128.123 28.2146L130.093 22.4507C130.452 24.9837 130.423 27.1726 128.123 28.2146Z" fill="#ffffff"/>
<path fill-rule="evenodd" clip-rule="evenodd" d="M129.881 28.2219C131.491 25.8757 133.801 26.5109 136.025 27.3782C134.106 28.7823 131.941 29.915 129.881 28.2219Z" fill="#ffffff"/>
<path fill-rule="evenodd" clip-rule="evenodd" d="M129.942 28.2062L135.941 27.4033C133.852 28.8596 131.896 29.8123 129.942 28.2062Z" fill="#ffffff"/>
<path fill-rule="evenodd" clip-rule="evenodd" d="M132.154 26.1288C130.071 24.197 131.016 21.9805 132.178 19.8831C133.292 21.9922 134.104 24.3099 132.154 26.1288Z" fill="#ffffff"/>
<path fill-rule="evenodd" clip-rule="evenodd" d="M132.146 26.0657L132.19 19.9698C133.332 22.2557 133.996 24.3399 132.146 26.0657Z" fill="#ffffff"/>
<path fill-rule="evenodd" clip-rule="evenodd" d="M133.262 25.8916C134.4 23.2799 136.788 23.4608 139.135 23.8862C137.516 25.6323 135.604 27.1592 133.262 25.8916Z" fill="#ffffff"/>
<path fill-rule="evenodd" clip-rule="evenodd" d="M133.319 25.8626L139.058 23.925C137.282 25.7549 135.541 27.0651 133.319 25.8626Z" fill="#ffffff"/>
<path fill-rule="evenodd" clip-rule="evenodd" d="M135.158 23.3662C132.756 21.857 133.277 19.5024 134.032 17.2242C135.515 19.0887 136.74 21.2144 135.158 23.3662Z" fill="#ffffff"/>
<path fill-rule="evenodd" clip-rule="evenodd" d="M135.139 23.3048L134.061 17.3064C135.603 19.3394 136.64 21.2632 135.139 23.3048Z" fill="#ffffff"/>
<path fill-rule="evenodd" clip-rule="evenodd" d="M135.998 23.0134C136.624 20.2323 139.003 19.955 141.388 19.9258C140.126 21.9486 138.535 23.8121 135.998 23.0134Z" fill="#ffffff"/>
<path fill-rule="evenodd" clip-rule="evenodd" d="M136.048 22.9739L141.319 19.9784C139.919 22.1134 138.455 23.7315 136.048 22.9739Z" fill="#ffffff"/>
<path fill-rule="evenodd" clip-rule="evenodd" d="M136.712 18.9267C134.154 17.7045 134.404 15.3052 134.896 12.955C136.581 14.6362 138.039 16.6067 136.712 18.9267V18.9267Z" fill="#ffffff"/>
<path fill-rule="evenodd" clip-rule="evenodd" d="M136.687 18.8695L134.933 13.0348C136.697 14.8766 137.945 16.6683 136.687 18.8695Z" fill="#ffffff"/>
<path fill-rule="evenodd" clip-rule="evenodd" d="M137.137 19.722C137.431 16.8856 139.761 16.3257 142.125 16.0115C141.111 18.171 139.751 20.2116 137.137 19.722Z" fill="#ffffff"/>
<path fill-rule="evenodd" clip-rule="evenodd" d="M137.182 19.6778L142.062 16.073C140.924 18.3604 139.662 20.1421 137.182 19.6778Z" fill="#ffffff"/>
<path fill-rule="evenodd" clip-rule="evenodd" d="M137.787 14.2771C135.022 13.6616 134.734 11.2667 134.691 8.86523C136.707 10.1246 138.565 11.7169 137.787 14.2771V14.2771Z" fill="#ffffff"/>
<path fill-rule="evenodd" clip-rule="evenodd" d="M137.748 14.2262L134.745 8.93372C136.872 10.332 138.486 11.7973 137.748 14.2262Z" fill="#ffffff"/>
<path fill-rule="evenodd" clip-rule="evenodd" d="M138.328 16.3693C137.528 13.6337 139.471 12.2227 141.538 11.0256C141.417 13.4113 140.93 15.8199 138.328 16.3693Z" fill="#ffffff"/>
<path fill-rule="evenodd" clip-rule="evenodd" d="M138.354 16.3103L141.504 11.1055C141.316 13.6571 140.822 15.7888 138.354 16.3103Z" fill="#ffffff"/>
<path fill-rule="evenodd" clip-rule="evenodd" d="M136.7 8.90321C133.872 9.04586 132.966 6.81296 132.294 4.50818C134.569 5.18611 136.779 6.22672 136.7 8.90321V8.90321Z" fill="#ffffff"/>
<path fill-rule="evenodd" clip-rule="evenodd" d="M136.65 8.8651L132.365 4.56067C134.784 5.34264 136.725 6.32585 136.65 8.8651V8.8651Z" fill="#ffffff"/>
<path fill-rule="evenodd" clip-rule="evenodd" d="M138.519 11.9723C136.819 9.69119 138.149 7.68492 139.67 5.83521C140.385 8.11314 140.765 10.541 138.519 11.9723Z" fill="#ffffff"/>
<path fill-rule="evenodd" clip-rule="evenodd" d="M138.523 11.9079L139.667 5.92188C140.377 8.3787 140.654 10.5499 138.523 11.9079Z" fill="#ffffff"/>
<path fill-rule="evenodd" clip-rule="evenodd" d="M135.462 4.84631C132.636 4.68202 131.972 2.36398 131.551 0C133.74 0.92015 135.826 2.19399 135.462 4.84631Z" fill="#ffffff"/>
<path fill-rule="evenodd" clip-rule="evenodd" d="M135.416 4.80243L131.614 0.0592041C133.936 1.09843 135.761 2.2861 135.416 4.80243Z" fill="#ffffff"/>
<path fill-rule="evenodd" clip-rule="evenodd" d="M137.267 7.30839C135.143 5.42239 136.041 3.18588 137.157 1.0636C138.316 3.14796 139.178 5.44742 137.267 7.30839Z" fill="#ffffff"/>
<path fill-rule="evenodd" clip-rule="evenodd" d="M137.257 7.24567L137.171 1.15027C138.361 3.41076 139.07 5.48002 137.257 7.24567Z" fill="#ffffff"/>
</svg>
